<svg xmlns="http://www.w3.org/2000/svg" viewBox="-12 0 312 170" role="img" aria-label="Dragon">
<defs><radialGradient id="pearl" cx=".38" cy=".35" r=".8"><stop offset="0" stop-color="#ffffff"/><stop offset=".45" stop-color="#bfeaff"/><stop offset="1" stop-color="#4aa8e0"/></radialGradient></defs>
<g stroke-linecap="round">
<path d="M244.9 129.8 L242.9 144.8" stroke="#7b1d14" stroke-width="13" fill="none"/>
<path d="M244.9 129.8 L242.9 144.8" stroke="#c0392b" stroke-width="9.5" fill="none"/>
<ellipse cx="242.9" cy="146.3" rx="9" ry="5.2" fill="#c0392b" stroke="#7b1d14" stroke-width="2"/>
<g stroke="#7b1d14" stroke-width="1.6" fill="none"><path d="M238.94552 146.7812 l-2.0 5" /><path d="M242.94552 146.7812 l0.0 5" /><path d="M246.94552 146.7812 l2.0 5" /></g></g><g stroke-linecap="round">
<path d="M204.7 119.3 L202.7 131.3" stroke="#7b1d14" stroke-width="13" fill="none"/>
<path d="M204.7 119.3 L202.7 131.3" stroke="#c0392b" stroke-width="9.5" fill="none"/>
<ellipse cx="202.7" cy="132.8" rx="9" ry="5.2" fill="#c0392b" stroke="#7b1d14" stroke-width="2"/>
<g stroke="#7b1d14" stroke-width="1.6" fill="none"><path d="M198.74872 133.29319999999998 l-2.0 5" /><path d="M202.74872 133.29319999999998 l0.0 5" /><path d="M206.74872 133.29319999999998 l2.0 5" /></g></g><g stroke-linecap="round">
<path d="M153.0 123.6 L152.0 137.6" stroke="#7b1d14" stroke-width="13" fill="none"/>
<path d="M153.0 123.6 L152.0 137.6" stroke="#c0392b" stroke-width="9.5" fill="none"/>
<ellipse cx="152.0" cy="139.1" rx="9" ry="5.2" fill="#c0392b" stroke="#7b1d14" stroke-width="2"/>
<g stroke="#7b1d14" stroke-width="1.6" fill="none"><path d="M148.04000000000005 139.64000000000004 l-2.0 5" /><path d="M152.04000000000005 139.64000000000004 l0.0 5" /><path d="M156.04000000000005 139.64000000000004 l2.0 5" /></g></g><g stroke-linecap="round">
<path d="M121.0 101.9 L120.0 111.9" stroke="#7b1d14" stroke-width="13" fill="none"/>
<path d="M121.0 101.9 L120.0 111.9" stroke="#c0392b" stroke-width="9.5" fill="none"/>
<ellipse cx="120.0" cy="113.4" rx="9" ry="5.2" fill="#c0392b" stroke="#7b1d14" stroke-width="2"/>
<g stroke="#7b1d14" stroke-width="1.6" fill="none"><path d="M115.96544 113.88484000000001 l-2.0 5" /><path d="M119.96544 113.88484000000001 l0.0 5" /><path d="M123.96544 113.88484000000001 l2.0 5" /></g></g>
<path d="M270 120 C230 150 200 100 170 120 C140 140 120 80 90 95 C74 101 74 80 92 66" fill="none" stroke="#7b1d14" stroke-width="12" stroke-linecap="round" stroke-linejoin="round"/>
<path d="M270 120 C230 150 200 100 170 120 C140 140 120 80 90 95 C74 101 74 80 92 66" fill="none" stroke="#c0392b" stroke-width="9" stroke-linecap="round" stroke-linejoin="round"/>
<g fill="#c0392b" stroke="#7b1d14" stroke-width="2" stroke-linejoin="round">
<path d="M195 118 l8 -22 l8 22Z M150 124 l8 -22 l8 22Z M110 96 l7 -20 l8 20Z"/>
</g>
<!-- 여의주 후광과 불꽃 -->
<circle cx="36" cy="59" r="23" fill="#ffe27a" opacity=".42"/>
<g fill="#ff9d2e" stroke="#e8590c" stroke-width="1" stroke-linejoin="round">
<path d="M36 35 c-5 -4 -3 -10 1 -14 c0 6 5 6 6 12z"/>
<path d="M16 44 c-7 0 -10 -6 -7 -11 c4 5 9 4 12 6z"/>
<path d="M9 62 c-7 3 -12 -2 -11 -7 c5 4 8 3 13 1z"/>
<path d="M17 80 c-6 1 -10 -4 -8 -8 c4 3 8 2 11 1z"/>
</g>
<!-- 입 안 → 아래턱 → 구슬 → 머리+위턱(한 덩어리) 순서 -->
<path d="M30 48 L108 44 L104 58 L32 70Z" fill="#5a0f0a"/>
<path d="M33 66 C46 62 60 61 72 60 C86 59 98 58 104 52 C106 66 98 76 84 77 C62 80 42 76 33 66Z" fill="#c0392b" stroke="#7b1d14" stroke-width="2" stroke-linejoin="round"/>
<circle cx="36" cy="59" r="10.5" fill="url(#pearl)" stroke="#2f9bd8" stroke-width="1.7"/>
<ellipse cx="32.5" cy="55" rx="3.6" ry="2.4" fill="#fff" opacity=".9"/>
<path d="M104 52 C110 36 101 21 87 21 C72 20 62 28 58 37 C50 40 40 43 31 49 C40 54 54 55 68 56 C82 57 96 60 104 52Z" fill="#c0392b" stroke="#7b1d14" stroke-width="2" stroke-linejoin="round"/>
<g fill="#c0392b" stroke="#7b1d14" stroke-width="2" stroke-linejoin="round"><path d="M92 24 L100 6 L106 28Z"/><path d="M80 23 L76 5 L90 22Z"/></g>
<path d="M104 52 C110 36 101 21 87 21 C72 20 62 28 58 37" fill="none" stroke="#c0392b" stroke-width="3"/>
<g fill="#fff" stroke="#7b1d14" stroke-width=".7"><path d="M42 53 l2.6 5.5 l2.6 -5.5z"/><path d="M47 64 l2.6 -5.5 l2.6 5.5z"/></g>
<circle cx="84" cy="36" r="4.6" fill="#fff3c4" stroke="#7b1d14" stroke-width="1"/><circle cx="85" cy="36" r="2.4" fill="#222"/><circle cx="85.8" cy="35" r=".8" fill="#fff"/>
<circle cx="40" cy="43" r="1.4" fill="#7b1d14"/>
<ellipse cx="96" cy="46" rx="5" ry="3" fill="#ec7063" opacity=".7"/>
<g fill="none" stroke="#f5a623" stroke-width="2.5" stroke-linecap="round"><path d="M68 78 Q60 92 46 94"/><path d="M78 80 Q75 100 64 106"/></g>
</svg>
